# xmcd
#
# Track frame offsets:
#	150
#	19645
#	33682
#	51960
#	72265
#	91542
#	110645
#	125272
#	144025
#	164742
#
# Disc length: 2407 seconds
#
# Revision: 1
# Processed by: cddbd v1.5PL3 Copyright (c) Steve Scherf et al.
# Submitted via: CDex 1.50Beta5
#
DISCID=8109650a
DTITLE=桜井幸子 - PRELUDE
DYEAR=1991
DGENRE=Pop
TTITLE0=輝いていようよ
TTITLE1=笑顔の奇跡
TTITLE2=君にとどかない
TTITLE3=隣にいるから
TTITLE4=ともだちでいようよ
TTITLE5=天使の落書
TTITLE6=瞳はイノセント
TTITLE7=Fly to the Moon
TTITLE8=Peppermint Light
TTITLE9=未来へきっとつづく夏
EXTD=
EXTT0=
EXTT1=
EXTT2=
EXTT3=
EXTT4=
EXTT5=
EXTT6=
EXTT7=
EXTT8=
EXTT9=
PLAYORDER=
